<svg width="512" height="512" viewBox="0 0 512 512" fill="none" xmlns="http://www.w3.org/2000/svg">
  <!-- Square Icon Version - For Social Media and App Icons -->
  <defs>
    <linearGradient id="squareGradient" x1="0%" y1="0%" x2="100%" y2="100%">
      <stop offset="0%" style="stop-color:#3B82F6;stop-opacity:1" />
      <stop offset="100%" style="stop-color:#10B981;stop-opacity:1" />
    </linearGradient>
  </defs>
  
  <!-- Background -->
  <rect width="512" height="512" rx="100" fill="url(#squareGradient)"/>
  
  <!-- House Shape (Scaled up) -->
  <path d="M256 140L140 240V380C140 392 148 400 160 400H220V300H292V400H352C364 400 372 392 372 380V240L256 140Z" fill="white" opacity="0.95"/>
  
  <!-- Roof -->
  <path d="M256 90L100 240H140L256 140L372 240H412L256 90Z" fill="white" opacity="0.95"/>
  
  <!-- Check Mark Circle -->
  <circle cx="340" cy="170" r="70" fill="#FBBF24"/>
  <path d="M310 170L330 190L370 150" stroke="white" stroke-width="18" stroke-linecap="round" stroke-linejoin="round"/>
  
  <!-- Small detail lines for modern look -->
  <line x1="220" y1="320" x2="220" y2="360" stroke="url(#squareGradient)" stroke-width="8" opacity="0.3"/>
  <line x1="292" y1="320" x2="292" y1="360" stroke="url(#squareGradient)" stroke-width="8" opacity="0.3"/>
</svg>
